<svg xmlns="http://www.w3.org/2000/svg" width="22" height="22" viewBox="0 0 22 22"><defs><style>.a{fill:#dbdbdb;}</style></defs><g transform="translate(-20 -689)"><path class="a" d="M-1805,545a10.928,10.928,0,0,1-7.778-3.222A10.927,10.927,0,0,1-1816,534a10.929,10.929,0,0,1,3.222-7.779A10.927,10.927,0,0,1-1805,523a10.928,10.928,0,0,1,7.778,3.222A10.929,10.929,0,0,1-1794,534a10.927,10.927,0,0,1-3.222,7.778A10.928,10.928,0,0,1-1805,545Zm-2-15.2a1,1,0,0,0-1,1V537.2a1,1,0,0,0,1,1,1,1,0,0,0,.527-.153l5.114-3.2a.994.994,0,0,0,.47-.847,1,1,0,0,0-.47-.849l-5.114-3.2A1,1,0,0,0-1807,529.8Z" transform="translate(1836 166)"/></g></svg>