<svg xmlns="http://www.w3.org/2000/svg" width="18.262" height="14.655" viewBox="0 0 18.262 14.655"><defs><style>.a{fill:#e2e2e2;}</style></defs><g transform="translate(0 -0.178)"><path class="a" d="M166.277,2.591a2.469,2.469,0,0,1-1.3-1.913A.757.757,0,0,0,164.168,0a.787.787,0,0,0-.7.8V9.939a3.49,3.49,0,0,0-1.516-.339,2.814,2.814,0,0,0-3.032,2.527,2.814,2.814,0,0,0,3.032,2.527,2.88,2.88,0,0,0,3.017-2.274,2.1,2.1,0,0,0,.015-.253V4.568a.514.514,0,0,1,.8-.426l.013.008a3.566,3.566,0,0,1,1.357,1.114c.834,1.385.073,3.042-.75,4.237a.6.6,0,0,0,0,.682h0a.6.6,0,0,0,.98.015c1.263-1.723,2.36-4.04,1.066-5.986a5.6,5.6,0,0,0-2.165-1.622Zm0,0" transform="translate(-150.762 0.179)"/><path class="a" d="M.342,238.348H10.6c.189,0,.342.093.342.207v1.034c0,.114-.153.207-.342.207H.342c-.189,0-.342-.093-.342-.207v-1.034c0-.114.153-.207.342-.207Zm0,0" transform="translate(0 -237.17)"/><path class="a" d="M.342,238.348H10.6c.189,0,.342.093.342.207v1.034c0,.114-.153.207-.342.207H.342c-.189,0-.342-.093-.342-.207v-1.034c0-.114.153-.207.342-.207Zm0,0" transform="translate(0 -234.17)"/><path class="a" d="M.342,238.348H10.6c.189,0,.342.093.342.207v1.034c0,.114-.153.207-.342.207H.342c-.189,0-.342-.093-.342-.207v-1.034c0-.114.153-.207.342-.207Zm0,0" transform="translate(0 -231.17)"/><path class="a" d="M.171,238.348H5.3a.191.191,0,0,1,.171.207v1.034a.192.192,0,0,1-.171.207H.171A.192.192,0,0,1,0,239.589v-1.034a.191.191,0,0,1,.171-.207Zm0,0" transform="translate(0 -228.17)"/></g></svg>