<svg xmlns="http://www.w3.org/2000/svg" width="22.221" height="9.114" viewBox="0 0 22.221 9.114"><defs><style>.a{fill:#e2e2e2;}</style></defs><g transform="translate(0 -13.107)"><g transform="translate(0 13.107)"><path class="a" d="M192.111,303.3h-8.888l.191-.191a.651.651,0,0,0-.921-.921l-1.3,1.3a.651.651,0,0,0,0,.921l1.3,1.3a.651.651,0,0,0,.921-.921l-.191-.191h8.888a1.953,1.953,0,0,1,0,3.906h-2.647a.651.651,0,0,0,0,1.3h2.647a3.255,3.255,0,1,0,0-6.51Z" transform="translate(-173.145 -302)"/><path class="a" d="M12.873,336.1a.651.651,0,1,0-.921.921l.191.191H3.255a1.953,1.953,0,0,1,0-3.906H5.9a.651.651,0,1,0,0-1.3H3.255a3.255,3.255,0,1,0,0,6.51h8.888l-.191.191a.651.651,0,1,0,.921.921l1.3-1.3a.651.651,0,0,0,0-.921Z" transform="translate(0 -330.699)"/></g></g></svg>