<svg xmlns="http://www.w3.org/2000/svg" width="21.348" height="13.342" viewBox="0 0 21.348 13.342"><defs><style>.a{fill:#e2e2e2;}</style></defs><path class="a" d="M18.709,114.011H16.284a3.323,3.323,0,0,1-2.276-.9l-3.328-3.106L14.01,106.9a3.321,3.321,0,0,1,2.276-.9H18.71v1.334l2.668-2-2.668-2v1.334H16.285a4.65,4.65,0,0,0-3.186,1.256l-7.7,7.186a3.326,3.326,0,0,1-2.274.9H.032v1.332H3.127a4.653,4.653,0,0,0,3.184-1.256L9.7,110.921l3.394,3.168a4.653,4.653,0,0,0,3.186,1.256h2.425v1.334l2.668-2-2.668-2s0,1.334,0,1.334Z" transform="translate(-0.031 -103.337)"/><path class="a" d="M3.1,139.149a3.319,3.319,0,0,1,2.272.9l2.349,2.193.978-.912-2.416-2.255A4.648,4.648,0,0,0,3.1,137.815H0v1.332H3.1Z" transform="translate(0 -136.479)"/></svg>