<svg xmlns="http://www.w3.org/2000/svg" xmlns:xlink="http://www.w3.org/1999/xlink" width="22" height="15.726" viewBox="0 0 22 15.726"><defs><style>.a{fill:url(#a);}</style><linearGradient id="a" x1="0.5" x2="0.5" y2="1" gradientUnits="objectBoundingBox"><stop offset="0" stop-color="#ed8770"/><stop offset="1" stop-color="#d9519d"/></linearGradient></defs><g transform="translate(0 1.57)"><path class="a" d="M9.828,102.28a.786.786,0,0,0-.786,0l-5.32,3.039H.786A.786.786,0,0,0,0,106.1v4.718a.786.786,0,0,0,.786.786H3.722l5.323,3.041a.786.786,0,0,0,1.176-.682V102.96A.786.786,0,0,0,9.828,102.28Z" transform="translate(0 -102.174)"/></g><g transform="translate(11.791 4.715)"><path class="a" d="M257.342,170.725a.786.786,0,0,0-1.225.986h0a3.159,3.159,0,0,1,0,3.732.786.786,0,0,0,1.22.993l.005-.007A4.7,4.7,0,0,0,257.342,170.725Z" transform="translate(-255.94 -170.433)"/></g><g transform="translate(14.937 2.356)"><path class="a" d="M325.609,119.525a.786.786,0,0,0-1.225.986h0a7.055,7.055,0,0,1,0,8.449.786.786,0,1,0,1.22.993l.005-.007A8.7,8.7,0,0,0,325.609,119.525Z" transform="translate(-324.207 -119.233)"/></g><g transform="translate(18.082)"><path class="a" d="M393.876,68.386a.786.786,0,0,0-1.225.986,10.994,10.994,0,0,1,0,13.167.786.786,0,1,0,1.22.993l.005-.007A12.641,12.641,0,0,0,393.876,68.386Z" transform="translate(-392.474 -68.096)"/></g></svg>