<svg xmlns="http://www.w3.org/2000/svg" xmlns:xlink="http://www.w3.org/1999/xlink" width="22" height="15.403" viewBox="0 0 22 15.403"><defs><style>.a{fill:url(#a);}</style><linearGradient id="a" x1="0.5" x2="0.5" y2="1" gradientUnits="objectBoundingBox"><stop offset="0" stop-color="#ed8770"/><stop offset="1" stop-color="#d9519d"/></linearGradient></defs><path class="a" d="M21.547-3.672a2.756,2.756,0,0,0-1.939-1.939C17.887-6.082,11-6.082,11-6.082s-6.886,0-8.608.453A2.812,2.812,0,0,0,.454-3.672,29.041,29.041,0,0,0,0,1.62,28.935,28.935,0,0,0,.454,6.911,2.757,2.757,0,0,0,2.393,8.85c1.74.471,8.608.471,8.608.471s6.886,0,8.608-.453a2.756,2.756,0,0,0,1.939-1.939A29.051,29.051,0,0,0,22,1.638a27.568,27.568,0,0,0-.453-5.31ZM8.808,4.918v-6.6l5.726,3.3Zm0,0" transform="translate(-0.001 6.082)"/></svg>