<svg xmlns="http://www.w3.org/2000/svg" xmlns:xlink="http://www.w3.org/1999/xlink" width="22" height="22" viewBox="0 0 22 22"><defs><style>.a{fill:url(#a);}</style><linearGradient id="a" x1="0.5" x2="0.5" y2="1" gradientUnits="objectBoundingBox"><stop offset="0" stop-color="#ed8770"/><stop offset="1" stop-color="#d9519d"/></linearGradient></defs><path class="a" d="M11,0A11.013,11.013,0,0,0,0,11v8.643A2.357,2.357,0,0,0,2.357,22H5.5a.786.786,0,0,0,.786-.786V13.357a.786.786,0,0,0-.786-.786H2.357a2.331,2.331,0,0,0-.786.145V11a9.429,9.429,0,1,1,18.857,0v1.717a2.331,2.331,0,0,0-.786-.145H16.5a.786.786,0,0,0-.786.786v7.857A.786.786,0,0,0,16.5,22h3.143A2.357,2.357,0,0,0,22,19.643V11A11.013,11.013,0,0,0,11,0Z"/></svg>