<svg xmlns="http://www.w3.org/2000/svg" xmlns:xlink="http://www.w3.org/1999/xlink" width="18" height="24" viewBox="0 0 18 24"><defs><style>.a{fill:url(#a);}</style><linearGradient id="a" x1="0.5" x2="0.5" y2="1" gradientUnits="objectBoundingBox"><stop offset="0" stop-color="#ed8770"/><stop offset="1" stop-color="#d9519d"/></linearGradient></defs><path class="a" d="M18.75,9H18V6A6,6,0,0,0,6,6V9H5.25A2.253,2.253,0,0,0,3,11.25v10.5A2.253,2.253,0,0,0,5.25,24h13.5A2.253,2.253,0,0,0,21,21.75V11.25A2.253,2.253,0,0,0,18.75,9ZM8,6a4,4,0,0,1,8,0V9H8Zm5,10.722V19a1,1,0,0,1-2,0V16.722a2,2,0,1,1,2,0Z" transform="translate(-3)"/></svg>