<svg xmlns="http://www.w3.org/2000/svg" xmlns:xlink="http://www.w3.org/1999/xlink" width="22" height="22" viewBox="0 0 22 22"><defs><style>.a{fill:url(#a);}</style><linearGradient id="a" x1="0.5" x2="0.5" y2="1" gradientUnits="objectBoundingBox"><stop offset="0" stop-color="#ed8770"/><stop offset="1" stop-color="#d9519d"/></linearGradient></defs><g transform="translate(7.777 7.777)"><path class="a" d="M184.223,181a3.223,3.223,0,1,0,3.223,3.223A3.226,3.226,0,0,0,184.223,181Z" transform="translate(-181 -181)"/></g><path class="a" d="M22,12.818V9.182l-2.982-.587a8.283,8.283,0,0,0-.649-1.562l1.664-2.5-2.57-2.57-2.5,1.664A8.281,8.281,0,0,0,13.4,2.982L12.818,0H9.182L8.595,2.982a8.283,8.283,0,0,0-1.562.649l-2.5-1.664-2.57,2.57,1.664,2.5a8.281,8.281,0,0,0-.649,1.562L0,9.182v3.636l2.982.587a8.283,8.283,0,0,0,.649,1.562l-1.664,2.5,2.57,2.57,2.5-1.664a8.282,8.282,0,0,0,1.562.649L9.182,22h3.636l.587-2.982a8.283,8.283,0,0,0,1.562-.649l2.5,1.664,2.57-2.57-1.664-2.5a8.282,8.282,0,0,0,.649-1.562ZM11,15.512A4.512,4.512,0,1,1,15.512,11,4.517,4.517,0,0,1,11,15.512Z"/></svg>